<svg width="200" height="200" viewBox="0 0 200 200" fill="none" xmlns="http://www.w3.org/2000/svg">
  <rect width="200" height="200" rx="20" fill="#008069"/>
  <path d="M100 50C72.3858 50 50 72.3858 50 100C50 127.614 72.3858 150 100 150C127.614 150 150 127.614 150 100C150 72.3858 127.614 50 100 50Z" fill="white"/>
  <path d="M100 65C80.67 65 65 80.67 65 100C65 119.33 80.67 135 100 135C119.33 135 135 119.33 135 100C135 80.67 119.33 65 100 65Z" fill="#25D366"/>
  <path d="M115 95C115 93.3431 113.657 92 112 92H88C86.3431 92 85 93.3431 85 95V115C85 116.657 86.3431 118 88 118H112C113.657 118 115 116.657 115 115V95Z" fill="white"/>
  <path d="M105 85L95 85C93.3431 85 92 86.3431 92 88V92H108V88C108 86.3431 106.657 85 105 85Z" fill="white"/>
  <path d="M100 105C102.761 105 105 102.761 105 100C105 97.2386 102.761 95 100 95C97.2386 95 95 97.2386 95 100C95 102.761 97.2386 105 100 105Z" fill="#008069"/>
</svg>